<svg width="24" height="24" viewBox="0 0 24 24" fill="none" xmlns="http://www.w3.org/2000/svg">
<path d="M11.293 16.707C11.4652 16.8792 11.6943 16.9826 11.9373 16.9979C12.1803 17.0132 12.4206 16.9393 12.613 16.79L12.707 16.707L18.707 10.707L18.79 10.613L18.844 10.536L18.898 10.44L18.915 10.404L18.942 10.337L18.974 10.229L18.984 10.176L18.994 10.116L18.998 10.059L19 10L18.998 9.94102L18.993 9.88302L18.984 9.82302L18.974 9.77102L18.942 9.66302L18.915 9.59602L18.845 9.46402L18.78 9.37402L18.707 9.29302L18.613 9.21002L18.536 9.15602L18.44 9.10202L18.404 9.08502L18.337 9.05802L18.229 9.02602L18.176 9.01602L18.116 9.00602L18.059 9.00202L18 9.00002H5.99999C5.14799 9.00002 4.70299 9.98602 5.21699 10.623L5.29299 10.707L11.293 16.707Z" fill="#3B6EFF"/>
</svg>
