<svg width="80" height="80" viewBox="0 0 80 80" fill="none" xmlns="http://www.w3.org/2000/svg">
<path d="M16.9629 53.5591C15.1004 53.5659 13.2815 54.1243 11.736 55.1637C10.1904 56.2031 8.9873 57.677 8.27852 59.3994C7.56973 61.1219 7.38701 63.0157 7.7534 64.8418C8.1198 66.668 9.01889 68.3448 10.3372 69.6605C11.6556 70.9762 13.3341 71.872 15.161 72.2348C16.9879 72.5975 18.8813 72.4111 20.6024 71.6989C22.3234 70.9867 23.7949 69.7807 24.8313 68.233C25.8676 66.6854 26.4223 64.8655 26.4254 63.0029C26.4176 60.4974 25.4175 58.0971 23.6441 56.3272C21.8707 54.5573 19.4684 53.562 16.9629 53.5591Z" fill="#3479EB"/>
<path d="M7.5 29.1671V42.6905C15.625 42.6905 23.4281 45.0952 29.1672 50.8327C34.9062 56.5702 37.2922 64.3577 37.2922 72.4999H50.8328C50.8328 48.8186 31.1984 29.1671 7.5 29.1671Z" fill="#3479EB"/>
<path d="M7.5 7.5V21.025C36.4453 21.025 58.9406 43.5375 58.9406 72.5H72.5C72.5 36.6656 43.3859 7.5 7.5 7.5Z" fill="#3479EB"/>
</svg>
