<svg width="24" height="24" viewBox="0 0 24 24" fill="none" xmlns="http://www.w3.org/2000/svg">
<path d="M11.293 7.29298C11.4652 7.12081 11.6943 7.01738 11.9373 7.00209C12.1803 6.98681 12.4206 7.06073 12.613 7.20998L12.707 7.29298L18.707 13.293L18.79 13.387L18.844 13.464L18.898 13.56L18.915 13.596L18.942 13.663L18.974 13.771L18.984 13.824L18.994 13.884L18.998 13.941L19 14L18.998 14.059L18.993 14.117L18.984 14.177L18.974 14.229L18.942 14.337L18.915 14.404L18.845 14.536L18.78 14.626L18.707 14.707L18.613 14.79L18.536 14.844L18.44 14.898L18.404 14.915L18.337 14.942L18.229 14.974L18.176 14.984L18.116 14.994L18.059 14.998L18 15H5.99999C5.14799 15 4.70299 14.014 5.21699 13.377L5.29299 13.293L11.293 7.29298Z" fill="#FE5050"/>
</svg>
